# xmcd
#
# Track frame offsets:
#	150
#	10648
#	23416
#	36173
#	45575
#	58229
#	70978
#	81809
#	93660
#	104008
#	116239
#	125996
#	138094
#	153130
#	165437
#	176762
#	188143
#	199199
#	209255
#	224152
#	234268
#	244117
#	255333
#	265200
#
# Disc length: 3678
#
# Revision: 1
# Processed by: cddbd v1.5.1PL0 Copyright (c) Steve Scherf et al.
# Submitted via: EasyCDDAExtractor 4.5.2.1
# Normalized: r0:TDELIM( - )
#
DISCID=550e5c18
DTITLE=Various Artist - Rare and Unreleased Vol 14
DYEAR=1900
DGENRE=Oldies
TTITLE0=Reminiscents - Zoom Zoom Zoom
TTITLE1=Miracles - Embraceable You
TTITLE2=Emeralds - My Love Is True(unr)
TTITLE3=Serenaders - My Last Affair
TTITLE4=Starlighters (Joey Dee and the) - Face Of An Angel
TTITLE5=Four Knights - When Your Wedding Ring Was New
TTITLE6=Gallahads - Why Do Fools Fall In Love
TTITLE7=Frankie Val and group - Mr. Echo
TTITLE8=Drifters - Wine Head Woman
TTITLE9=Inspirations - Don't Cry
TTITLE10=Griffins - Leave It To Me
TTITLE11=Feathers (June Moy and the) - Desert Winds
TTITLE12=Emeralds - I Sent A Letter To Your Heart(unr)
TTITLE13=Starfires - These Foolish Things
TTITLE14=Youngsters - I'm Sorry Now
TTITLE15=Sweet Teens (Faith Taylor and the) - Your Candy Kisses
TTITLE16=Pastels - You Don't Love Me Anymore
TTITLE17=Snappers - If There Were
TTITLE18=Suedes - My Prayer To Heaven(unr)
TTITLE19=Clickettes - Why Oh Why
TTITLE20=Travelers - White Rose
TTITLE21=Nobles - Do You Love Me
TTITLE22=Progressions - Way Beyond Today(unr)
TTITLE23=Nite Caps - Sweet Thing
EXTD=
EXTT0=
EXTT1=
EXTT2=
EXTT3=
EXTT4=
EXTT5=
EXTT6=
EXTT7=
EXTT8=
EXTT9=
EXTT10=
EXTT11=
EXTT12=
EXTT13=
EXTT14=
EXTT15=
EXTT16=
EXTT17=
EXTT18=
EXTT19=
EXTT20=
EXTT21=
EXTT22=
EXTT23=
PLAYORDER=
